<svg width="218" height="216" viewBox="0 0 218 216" fill="none" xmlns="http://www.w3.org/2000/svg">
<path d="M112.093 214.317L109.51 196.317L132.319 193.044L134.902 211.044L132.382 211.406L130.124 195.668L122.435 196.772L124.694 212.509L122.173 212.871L119.915 197.133L112.355 198.218L114.613 213.956L112.093 214.317Z" fill="#C9C9C9"/>
<path d="M86.7789 199C87.0111 197.127 87.7713 195.851 89.0595 195.173C90.3283 194.51 92.0971 194.32 94.3658 194.601L106.354 196.087L104.117 214.133L92.8509 212.737C91.8368 212.611 90.9344 212.43 90.1437 212.192C89.3336 211.969 88.6577 211.65 88.1159 211.234C87.572 210.835 87.1806 210.333 86.9415 209.727C86.6831 209.137 86.6082 208.403 86.7169 207.526C86.8319 206.598 87.1243 205.858 87.5942 205.305C88.062 204.77 88.6276 204.36 89.291 204.076C88.3217 203.589 87.624 202.953 87.1978 202.167C86.7524 201.397 86.6127 200.341 86.7789 199ZM102.482 206.627L93.9744 205.573C93.2354 205.481 92.5952 205.437 92.0539 205.439C91.5126 205.442 91.0669 205.518 90.7169 205.666C90.3497 205.813 90.0686 206.04 89.8734 206.347C89.6589 206.67 89.5197 207.089 89.4558 207.604C89.3919 208.12 89.4353 208.544 89.586 208.877C89.7174 209.225 89.954 209.498 90.2958 209.698C90.6182 209.912 91.0426 210.078 91.569 210.196C92.0955 210.313 92.711 210.416 93.4157 210.503L101.872 211.551L102.482 206.627ZM103.546 198.042L94.0846 196.869C93.2081 196.761 92.4863 196.741 91.9193 196.81C91.3501 196.897 90.9024 197.06 90.5761 197.298C90.2305 197.552 89.9817 197.87 89.8295 198.253C89.6602 198.633 89.5458 199.064 89.4861 199.545C89.4243 200.044 89.4216 200.489 89.4778 200.879C89.5341 201.27 89.6999 201.622 89.9751 201.936C90.2504 202.249 90.6631 202.51 91.2133 202.718C91.7462 202.923 92.4682 203.082 93.3791 203.195L102.763 204.359L103.546 198.042Z" fill="#C9C9C9"/>
<path d="M50.62 197.718L58.6881 181.421L79.3386 191.645L71.2706 207.942L68.989 206.812L76.0428 192.564L69.0817 189.118L62.0279 203.366L59.7463 202.236L66.8001 187.988L59.9554 184.6L52.9016 198.848L50.62 197.718Z" fill="#C9C9C9"/>
<path d="M38.7812 170.997C40.0311 169.582 41.379 168.959 42.8249 169.127C44.2464 169.297 45.8138 170.138 47.527 171.652L56.5799 179.65L44.5398 193.278L36.0321 185.762C35.2663 185.085 34.6243 184.425 34.106 183.783C33.5633 183.141 33.186 182.496 32.974 181.847C32.7506 181.21 32.7113 180.574 32.856 179.94C32.9764 179.307 33.329 178.659 33.9138 177.997C34.533 177.296 35.1925 176.851 35.8923 176.66C36.5807 176.482 37.2789 176.464 37.987 176.604C37.462 175.655 37.2457 174.736 37.3379 173.847C37.4057 172.959 37.8868 172.009 38.7812 170.997ZM47.4307 186.161L41.0061 180.485C40.448 179.992 39.9449 179.593 39.4967 179.29C39.0484 178.986 38.638 178.797 38.2652 178.722C37.8795 178.635 37.5193 178.664 37.1846 178.807C36.8255 178.952 36.4739 179.219 36.1299 179.608C35.7859 179.998 35.5821 180.372 35.5185 180.732C35.4304 181.093 35.4711 181.453 35.6404 181.81C35.7853 182.17 36.0418 182.546 36.4097 182.941C36.7777 183.335 37.2277 183.767 37.7598 184.238L44.1455 189.879L47.4307 186.161ZM53.1584 179.678L46.0134 173.365C45.3515 172.78 44.767 172.357 44.2599 172.093C43.7414 171.843 43.2801 171.725 42.876 171.737C42.4474 171.752 42.0623 171.874 41.7207 172.103C41.3662 172.321 41.0283 172.612 40.7073 172.976C40.3747 173.352 40.1213 173.717 39.9469 174.072C39.7725 174.426 39.7103 174.81 39.7605 175.224C39.8106 175.638 40.004 176.087 40.3406 176.569C40.6642 177.04 41.1699 177.579 41.8578 178.187L48.9443 184.447L53.1584 179.678Z" fill="#C9C9C9"/>
<path d="M9.6446 149.532L25.5021 140.631L36.7807 160.725L20.9232 169.626L19.677 167.406L33.541 159.624L29.7391 152.851L15.8751 160.632L14.629 158.412L28.493 150.63L24.7547 143.97L10.8907 151.752L9.6446 149.532Z" fill="#C9C9C9"/>
<path d="M14.963 120.848C16.794 120.389 18.2581 120.638 19.355 121.595C20.431 122.539 21.2469 124.12 21.8029 126.337L24.7405 138.054L7.10174 142.477L4.34095 131.465C4.09245 130.474 3.93643 129.567 3.87287 128.744C3.7883 127.908 3.8424 127.162 4.03518 126.507C4.21116 125.856 4.53842 125.309 5.01697 124.868C5.47451 124.414 6.13165 124.08 6.9884 123.865C7.89554 123.637 8.69152 123.643 9.37635 123.882C10.0444 124.125 10.6306 124.505 11.135 125.021C11.2393 123.942 11.581 123.062 12.1602 122.381C12.7184 121.687 13.6527 121.176 14.963 120.848ZM13.5129 138.245L11.4281 129.929C11.247 129.207 11.0576 128.594 10.8598 128.09C10.6621 127.586 10.4308 127.198 10.166 126.925C9.89696 126.635 9.5839 126.455 9.22682 126.384C8.84872 126.3 8.40769 126.321 7.90373 126.447C7.39976 126.574 7.01975 126.767 6.7637 127.028C6.48664 127.276 6.31674 127.595 6.254 127.986C6.17024 128.364 6.16845 128.82 6.24862 129.353C6.32878 129.887 6.45521 130.498 6.62789 131.186L8.70006 139.451L13.5129 138.245ZM21.904 136.141L19.5854 126.893C19.3706 126.036 19.1286 125.356 18.8595 124.852C18.5735 124.353 18.2603 123.994 17.9199 123.776C17.5585 123.545 17.172 123.427 16.7604 123.423C16.3445 123.403 15.9014 123.451 15.4311 123.569C14.9439 123.691 14.5281 123.849 14.1838 124.043C13.8395 124.236 13.5709 124.518 13.3779 124.888C13.185 125.257 13.0908 125.736 13.0954 126.324C13.0958 126.896 13.2076 127.626 13.4308 128.517L15.7304 137.689L21.904 136.141Z" fill="#C9C9C9"/>
<path d="M3.10939 86.2856L21.2163 87.9662L19.0867 110.91L0.979843 109.23L1.21512 106.695L17.0457 108.164L17.7636 100.43L1.93298 98.9604L2.16826 96.4255L17.9989 97.8948L18.7047 90.2899L2.87411 88.8206L3.10939 86.2856Z" fill="#C9C9C9"/>
<path d="M23.7666 65.6308C25.534 66.294 26.5969 67.331 26.9554 68.7419C27.3038 70.1305 27.0764 71.8949 26.2733 74.0353L22.0296 85.3452L5.00396 78.9568L8.99215 68.3279C9.35112 67.3712 9.73845 66.5362 10.1541 65.8228C10.5597 65.087 11.028 64.5044 11.5592 64.0747C12.0741 63.639 12.6539 63.3756 13.2985 63.2845C13.933 63.1711 14.6637 63.2696 15.4907 63.5799C16.3663 63.9084 17.0179 64.3657 17.4455 64.9516C17.8568 65.5314 18.1232 66.177 18.2447 66.8885C18.9442 66.0596 19.7257 65.5297 20.5893 65.2988C21.4427 65.0456 22.5018 65.1563 23.7666 65.6308ZM12.6843 79.1194L15.696 71.0931C15.9576 70.3958 16.1503 69.7837 16.274 69.2567C16.3978 68.7297 16.4283 68.2787 16.3655 67.9037C16.3088 67.5125 16.1538 67.1861 15.9005 66.9245C15.637 66.6407 15.2621 66.4075 14.7756 66.225C14.2892 66.0425 13.8666 65.9856 13.5078 66.0545C13.1388 66.101 12.8175 66.2672 12.5438 66.5529C12.26 66.8164 11.9994 67.1903 11.7622 67.6747C11.5249 68.1591 11.2816 68.7338 11.0321 69.3986L8.0387 77.3763L12.6843 79.1194ZM20.7836 82.1585L24.133 73.2322C24.4433 72.4052 24.6309 71.708 24.6959 71.1404C24.7446 70.5668 24.691 70.0935 24.535 69.7205C24.3689 69.3252 24.1176 69.0089 23.7811 68.7717C23.4508 68.5182 23.0586 68.3063 22.6046 68.136C22.1344 67.9595 21.7026 67.853 21.3094 67.8165C20.9162 67.7799 20.5351 67.8589 20.1661 68.0534C19.7972 68.2479 19.4474 68.5884 19.1169 69.0748C18.7925 69.545 18.4691 70.2098 18.1466 71.0692L14.8246 79.9225L20.7836 82.1585Z" fill="#C9C9C9"/>
<path d="M33.2961 30.8122L47.2686 42.4506L32.5211 60.1558L18.5486 48.5174L20.178 46.5612L32.3939 56.7365L37.3652 50.7683L25.1492 40.5929L26.7786 38.6368L38.9946 48.8121L43.8827 42.9436L31.6667 32.7683L33.2961 30.8122Z" fill="#C9C9C9"/>
<path d="M62.2567 25.2271C63.3391 26.7737 63.6291 28.2301 63.1267 29.5964C62.6285 30.9385 61.443 32.265 59.57 33.5758L49.673 40.5021L39.2464 25.6034L48.5474 19.0942C49.3845 18.5083 50.1763 18.0388 50.9226 17.6856C51.6732 17.3083 52.389 17.0927 53.0701 17.0388C53.7412 16.9708 54.3683 17.0815 54.9514 17.371C55.5387 17.6364 56.0856 18.1309 56.5921 18.8546C57.1283 19.6208 57.407 20.3664 57.4282 21.0914C57.4395 21.8023 57.294 22.4854 56.9917 23.1409C58.0374 22.8529 58.9816 22.858 59.8244 23.1561C60.6714 23.43 61.4821 24.1203 62.2567 25.2271ZM45.488 30.0819L52.5116 25.1664C53.1217 24.7394 53.6269 24.3436 54.027 23.9791C54.4272 23.6145 54.7074 23.2598 54.8678 22.915C55.0423 22.5604 55.0991 22.2035 55.0381 21.8446C54.9814 21.4615 54.8041 21.0571 54.5062 20.6314C54.2083 20.2057 53.8919 19.9198 53.5571 19.7736C53.2266 19.6034 52.8676 19.5586 52.4803 19.6395C52.0972 19.6962 51.6708 19.8572 51.2012 20.1224C50.7315 20.3877 50.2058 20.7239 49.624 21.131L42.643 26.0167L45.488 30.0819ZM50.4481 37.1694L58.2592 31.7028C58.9829 31.1964 59.532 30.7275 59.9066 30.2962C60.2713 29.8508 60.4948 29.4301 60.5771 29.0343C60.6637 28.6143 60.6354 28.2114 60.4921 27.8254C60.3631 27.4296 60.1595 27.033 59.8814 26.6357C59.5935 26.2242 59.2977 25.8922 58.9941 25.6396C58.6905 25.387 58.3315 25.2366 57.9173 25.1883C57.503 25.14 57.022 25.223 56.4743 25.4371C55.9408 25.6414 55.2981 26.0067 54.546 26.533L46.7987 31.9548L50.4481 37.1694Z" fill="#C9C9C9"/>
<path d="M89.4909 1.98266L94.4466 19.4791L72.2761 25.7587L67.3205 8.26223L69.77 7.56844L74.1026 22.8653L81.5761 20.7485L77.2434 5.45165L79.6929 4.75785L84.0256 20.0547L91.3741 17.9733L87.0414 2.67646L89.4909 1.98266Z" fill="#C9C9C9"/>
<path d="M116.174 13.724C116.196 15.6116 115.614 16.978 114.429 17.8231C113.261 18.6506 111.534 19.0777 109.248 19.1041L97.169 19.244L96.9584 1.06052L108.31 0.929055C109.332 0.917222 110.25 0.975864 111.066 1.10498C111.899 1.21658 112.611 1.44214 113.204 1.78168C113.797 2.10389 114.252 2.54893 114.571 3.11681C114.906 3.66716 115.079 4.38394 115.089 5.26714C115.1 6.20229 114.91 6.97523 114.518 7.58596C114.127 8.17937 113.622 8.66152 113.002 9.03241C114.028 9.38425 114.805 9.92083 115.333 10.6422C115.878 11.346 116.159 12.3732 116.174 13.724ZM99.588 8.27846L108.16 8.17919C108.905 8.17057 109.545 8.12851 110.081 8.05302C110.617 7.97753 111.049 7.84264 111.376 7.64833C111.72 7.45383 111.968 7.19116 112.12 6.86032C112.289 6.51196 112.371 6.07802 112.365 5.55849C112.359 5.03896 112.259 4.62444 112.064 4.31493C111.887 3.9879 111.616 3.74856 111.251 3.59691C110.902 3.42775 110.459 3.3203 109.922 3.27456C109.385 3.22882 108.761 3.21007 108.051 3.21829L99.5306 3.31696L99.588 8.27846ZM99.6882 16.9286L109.222 16.8182C110.105 16.808 110.823 16.7304 111.375 16.5854C111.928 16.4232 112.349 16.2018 112.641 15.9213C112.949 15.6233 113.153 15.2745 113.252 14.875C113.369 14.4753 113.424 14.033 113.418 13.5481C113.413 13.0459 113.356 12.6049 113.247 12.2251C113.139 11.8453 112.927 11.5187 112.612 11.2452C112.297 10.9717 111.853 10.7691 111.28 10.6371C110.725 10.505 109.988 10.4443 109.07 10.4549L99.6145 10.5644L99.6882 16.9286Z" fill="#C9C9C9"/>
<path d="M152.851 10.177L146.977 27.387L125.17 19.9443L131.043 2.7343L133.453 3.5566L128.318 18.6031L135.669 21.1119L140.804 6.06546L143.213 6.88776L138.078 21.9342L145.306 24.4012L150.442 9.35466L152.851 10.177Z" fill="#C9C9C9"/>
<path d="M168.329 35.2154C167.269 36.7777 166.012 37.5675 164.556 37.5847C163.124 37.5973 161.463 36.962 159.571 35.6787L149.573 28.898L159.781 13.8484L169.176 20.2208C170.022 20.7944 170.743 21.367 171.339 21.9385C171.958 22.5055 172.415 23.0976 172.708 23.7147C173.01 24.3176 173.13 24.943 173.067 25.591C173.029 26.2343 172.761 26.9215 172.266 27.6525C171.741 28.4265 171.143 28.9525 170.473 29.2306C169.813 29.4943 169.123 29.6017 168.403 29.5527C169.044 30.4272 169.376 31.3113 169.398 32.205C169.443 33.094 169.087 34.0975 168.329 35.2154ZM157.82 21.2758L164.914 26.0879C165.531 26.506 166.08 26.837 166.564 27.081C167.047 27.325 167.478 27.4606 167.857 27.4876C168.251 27.5244 168.605 27.4504 168.918 27.2655C169.256 27.0761 169.571 26.7664 169.862 26.3364C170.154 25.9064 170.308 25.5089 170.326 25.144C170.367 24.7745 170.281 24.4231 170.068 24.09C169.878 23.7522 169.576 23.4111 169.161 23.0668C168.746 22.7224 168.244 22.3509 167.657 21.9524L160.605 17.1694L157.82 21.2758ZM152.964 28.4351L160.854 33.7868C161.585 34.2826 162.219 34.6287 162.755 34.8251C163.301 35.0072 163.774 35.0662 164.173 35.0022C164.596 34.9335 164.963 34.7635 165.272 34.4921C165.596 34.2305 165.894 33.8991 166.167 33.4977C166.448 33.0821 166.653 32.6874 166.781 32.3138C166.909 31.9401 166.922 31.5511 166.819 31.1468C166.717 30.7425 166.468 30.3226 166.073 29.8872C165.692 29.4614 165.122 28.9909 164.362 28.4757L156.536 23.1678L152.964 28.4351Z" fill="#C9C9C9"/>
<path d="M200.154 52.8616L185.567 63.7192L171.809 45.2346L186.396 34.3771L187.916 36.4193L175.163 45.9119L179.8 52.1429L192.554 42.6503L194.074 44.6925L181.321 54.1852L185.881 60.312L198.634 50.8193L200.154 52.8616Z" fill="#C9C9C9"/>
<path d="M198.51 81.663C196.755 82.3592 195.271 82.3052 194.057 81.501C192.866 80.7065 191.849 79.2468 191.006 77.1219L186.551 65.8935L203.454 59.1871L207.641 69.7394C208.018 70.6892 208.292 71.5679 208.463 72.3756C208.657 73.193 208.702 73.9393 208.597 74.6143C208.508 75.283 208.256 75.8676 207.84 76.3682C207.446 76.8784 206.838 77.2964 206.017 77.6222C205.148 77.9671 204.358 78.0661 203.648 77.9194C202.954 77.7663 202.323 77.4671 201.755 77.0217C201.793 78.1056 201.571 79.0232 201.086 79.7744C200.624 80.5353 199.765 81.1648 198.51 81.663ZM197.656 64.2265L200.818 72.195C201.092 72.8872 201.361 73.4701 201.623 73.9436C201.886 74.4171 202.166 74.7716 202.465 75.0072C202.769 75.2589 203.103 75.3965 203.467 75.4201C203.853 75.4533 204.287 75.3741 204.77 75.1825C205.253 74.9909 205.604 74.7491 205.824 74.457C206.066 74.1747 206.192 73.8358 206.203 73.4402C206.236 73.0544 206.178 72.6024 206.028 72.0842C205.878 71.566 205.673 70.9769 205.411 70.3168L202.268 62.3966L197.656 64.2265ZM189.615 67.4168L193.131 76.2788C193.457 77.0998 193.786 77.7423 194.12 78.2063C194.469 78.664 194.827 78.9786 195.193 79.15C195.581 79.3312 195.98 79.3967 196.389 79.3463C196.804 79.3121 197.236 79.2056 197.687 79.0268C198.154 78.8415 198.545 78.6304 198.861 78.3933C199.177 78.1562 199.406 77.8416 199.549 77.4497C199.691 77.0577 199.722 76.5706 199.64 75.9883C199.564 75.422 199.357 74.7123 199.019 73.8591L195.531 65.0696L189.615 67.4168Z" fill="#C9C9C9"/>
<path d="M210.485 129.386L192.43 127.222L195.172 104.343L213.227 106.507L212.924 109.035L197.139 107.143L196.214 114.855L212 116.747L211.697 119.275L195.911 117.383L195.002 124.966L210.788 126.858L210.485 129.386Z" fill="#C9C9C9"/>
<path d="M189.139 149.873C187.389 149.164 186.354 148.1 186.032 146.68C185.72 145.283 185.994 143.525 186.852 141.406L191.39 130.211L208.243 137.042L203.978 147.563C203.595 148.51 203.186 149.335 202.751 150.037C202.327 150.762 201.843 151.332 201.301 151.748C200.775 152.17 200.188 152.418 199.542 152.492C198.904 152.589 198.177 152.472 197.358 152.14C196.491 151.789 195.852 151.314 195.44 150.718C195.044 150.127 194.794 149.475 194.691 148.76C193.97 149.571 193.175 150.08 192.306 150.288C191.446 150.519 190.39 150.381 189.139 149.873ZM200.57 136.679L197.349 144.624C197.069 145.314 196.861 145.921 196.723 146.445C196.586 146.968 196.544 147.418 196.597 147.795C196.643 148.187 196.789 148.518 197.036 148.786C197.292 149.076 197.66 149.319 198.142 149.514C198.623 149.71 199.044 149.777 199.405 149.718C199.775 149.681 200.1 149.523 200.382 149.245C200.672 148.989 200.942 148.622 201.192 148.144C201.442 147.666 201.7 147.098 201.967 146.44L205.168 138.543L200.57 136.679ZM192.553 133.429L188.971 142.265C188.639 143.083 188.433 143.776 188.354 144.341C188.29 144.913 188.331 145.388 188.477 145.765C188.633 146.164 188.876 146.487 189.206 146.733C189.53 146.995 189.916 147.217 190.366 147.399C190.831 147.588 191.26 147.706 191.652 147.753C192.044 147.799 192.427 147.73 192.801 147.546C193.175 147.361 193.534 147.03 193.877 146.552C194.213 146.09 194.554 145.434 194.899 144.584L198.451 135.82L192.553 133.429Z" fill="#C9C9C9"/>
<path d="M178.541 184.468L164.888 172.457L180.108 155.156L193.761 167.167L192.08 169.079L180.143 158.578L175.012 164.41L186.949 174.911L185.268 176.822L173.331 166.321L168.286 172.056L180.223 182.557L178.541 184.468Z" fill="#C9C9C9"/>
<path d="M149.666 188.988C148.623 187.414 148.37 185.951 148.907 184.598C149.439 183.269 150.657 181.973 152.563 180.709L162.632 174.035L172.679 189.192L163.217 195.465C162.365 196.029 161.562 196.479 160.807 196.813C160.047 197.171 159.326 197.369 158.643 197.405C157.971 197.456 157.347 197.33 156.771 197.026C156.191 196.745 155.656 196.237 155.168 195.501C154.652 194.722 154.392 193.969 154.389 193.244C154.396 192.533 154.558 191.854 154.877 191.206C153.824 191.468 152.881 191.439 152.046 191.119C151.206 190.824 150.413 190.114 149.666 188.988ZM166.552 184.558L159.407 189.294C158.786 189.706 158.271 190.089 157.862 190.443C157.453 190.797 157.164 191.145 156.995 191.485C156.811 191.836 156.745 192.191 156.797 192.551C156.844 192.936 157.011 193.344 157.298 193.777C157.585 194.211 157.895 194.504 158.226 194.659C158.552 194.838 158.909 194.891 159.299 194.82C159.683 194.773 160.113 194.623 160.59 194.37C161.066 194.116 161.6 193.794 162.192 193.401L169.294 188.693L166.552 184.558ZM161.773 177.347L153.826 182.615C153.09 183.103 152.529 183.558 152.144 183.979C151.768 184.416 151.534 184.83 151.442 185.224C151.344 185.642 151.362 186.045 151.496 186.435C151.615 186.834 151.808 187.235 152.076 187.639C152.354 188.058 152.641 188.397 152.938 188.658C153.235 188.918 153.591 189.077 154.003 189.136C154.416 189.195 154.899 189.124 155.452 188.924C155.991 188.733 156.642 188.384 157.408 187.877L165.289 182.652L161.773 177.347Z" fill="#C9C9C9"/>
</svg>
